<?xml version="1.0" encoding="UTF-8"?>
<!DOCTYPE svg PUBLIC "-//W3C//DTD SVG 1.1//EN" "http://www.w3.org/Graphics/SVG/1.1/DTD/svg11.dtd">
<!-- Creator: CorelDRAW 2020 (64 Bit) -->
<svg xmlns="http://www.w3.org/2000/svg" xml:space="preserve" width="273.992mm" height="69.0408mm" version="1.1" style="shape-rendering:geometricPrecision; text-rendering:geometricPrecision; image-rendering:optimizeQuality; fill-rule:evenodd; clip-rule:evenodd"
viewBox="0 0 27299.94 6879.07"
 xmlns:xlink="http://www.w3.org/1999/xlink"
 xmlns:xodm="http://www.corel.com/coreldraw/odm/2003">
 <defs>
  <style type="text/css">
   <![CDATA[
    .fil0 {fill:#155BA6}
    .fil1 {fill:#5895D6}
    .fil2 {fill:#155BA6;fill-rule:nonzero}
    .fil3 {fill:#5895D6;fill-rule:nonzero}
   ]]>
  </style>
 </defs>
 <g id="Camada_x0020_1">
  <metadata id="CorelCorpID_0Corel-Layer"/>
  <g id="_2195355519600">
   <g>
    <path class="fil0" d="M2307.86 6879.07c800.18,-166.73 904.46,-531.37 899.13,-1392.38 -4.52,-737.73 14.13,-1493.3 -12.17,-2228.01l1326.22 -64.31c-307.05,1271.99 -943.28,469.02 -811.89,2110.53 1193.44,-371.36 1818.89,-1373.38 1777.53,-2944.42 -650.48,-163.95 -2395.1,-52.61 -3184.73,-73.58l5.91 4592.17z"/>
    <path class="fil1" d="M1796.54 5306.76c104.97,-1409.42 -401.6,-961.13 -771.91,-1912.97 -507.49,-1304.79 780.36,-2939.2 2371.69,-2370.76 931.11,332.65 477.72,908.87 1918.08,760.55 -615.95,-1747.97 -2990.66,-2466.47 -4489.75,-978.04 -1503.96,1493.42 -815.02,3885.61 971.9,4501.22z"/>
   </g>
   <path class="fil2" d="M8694.75 1649.46l-363.2 344.88c-246.97,-260.23 -524.26,-390.35 -833.14,-390.35 -260.24,0 -480.05,89.06 -658.18,266.55 -178.76,177.49 -267.82,396.04 -267.82,656.28 0,181.28 39.8,342.36 118.75,482.58 78.95,140.86 190.76,251.41 334.77,331.62 144.64,80.22 305.08,120 481.95,120 150.33,0 288.02,-27.79 412.46,-84 125.08,-56.22 262.14,-158.54 411.2,-306.35l351.83 367.61c-200.87,196.45 -390.99,332.88 -569.75,408.67 -178.75,76.43 -383.41,114.33 -612.69,114.33 -423.21,0 -769.98,-133.91 -1039.7,-402.36 -269.71,-267.83 -404.26,-612.06 -404.26,-1030.85 0,-271.61 61.28,-512.27 184.45,-723.24 122.53,-210.96 298.14,-380.26 527.42,-508.47 228.66,-128.22 475,-192.66 739.66,-192.66 224.23,0 440.26,47.38 648.7,142.12 207.81,94.75 387.2,229.29 537.54,403.62zm1737.03 -545.75c384.67,0 715.66,139.6 992.31,418.16 277.29,278.55 415.63,618.38 415.63,1018.85 0,397.31 -136.43,733.34 -409.94,1008.1 -272.87,274.77 -604.49,412.47 -994.22,412.47 -408.67,0 -747.87,-141.5 -1017.58,-423.84 -270.35,-282.34 -405.53,-617.75 -405.53,-1006.21 0,-259.62 63.17,-499.01 188.86,-717.55 125.7,-217.92 298.77,-391 518.58,-518.58 220.45,-127.6 457.94,-191.39 711.87,-191.39zm-7.58 507.84c-250.77,0 -461.74,87.8 -632.28,262.77 -171.18,174.96 -256.45,397.3 -256.45,667.64 0,300.67 107.38,538.8 322.77,713.76 167.39,137.07 358.79,205.28 575.44,205.28 244.45,0 452.89,-89.06 624.7,-266.55 172.44,-177.49 258.34,-396.04 258.34,-656.28 0,-258.98 -86.54,-478.15 -260.23,-657.55 -173.07,-179.39 -384.04,-269.08 -632.28,-269.08zm2168.45 -439.62l502.16 0 633.54 1898.1 636.71 -1898.1 500.9 0 456.05 2721.14 -499.63 0 -290.56 -1718.71 -576.07 1718.71 -457.31 0 -573.53 -1718.71 -296.24 1718.71 -505.32 0 469.31 -2721.14zm3145.61 0l550.16 0c297.51,0 511.64,27.16 643.02,82.11 131.38,54.95 235.6,144.02 311.4,266.56 75.8,122.53 113.7,269.71 113.7,441.51 0,190.13 -49.9,348.04 -149.7,473.74 -99.17,125.7 -234.35,213.5 -405.52,262.76 -100.43,28.43 -282.98,42.33 -547.64,42.33l0 1152.12 -515.43 0 0 -2721.14zm515.43 1064.96l166.12 0c130.75,0 221.08,-9.48 272.24,-27.79 51.16,-18.95 90.96,-49.27 120.64,-92.22 29.06,-42.95 43.59,-94.75 43.59,-156.02 0,-105.48 -41.06,-182.54 -123.17,-230.55 -59.37,-36 -170.54,-54.31 -332.24,-54.31l-147.17 0 0 560.9zm2442.58 -1064.96l521.74 0 1047.27 2721.14 -538.8 0 -212.23 -560.9 -1115.49 0 -217.29 560.9 -538.79 0 1053.59 -2721.14zm261.5 723.24l-368.88 936.73 735.86 0 -366.99 -936.73zm3138.66 -353.1l-384.03 338.56c-134.55,-186.96 -271.61,-280.45 -411.2,-280.45 -68.22,0 -123.81,18.32 -166.75,54.32 -43.59,36.64 -65.06,77.7 -65.06,123.17 0,45.48 15.15,89.07 46.1,129.49 42.33,54.32 169.29,170.54 380.89,349.3 197.71,165.49 317.72,269.72 360.04,312.66 104.86,106.12 179.39,207.19 223.61,303.83 43.58,97.28 65.69,202.76 65.69,317.09 0,223.61 -77.06,407.42 -231.82,553.33 -154.12,145.27 -355.62,217.92 -604.48,217.92 -193.92,0 -362.57,-47.38 -506.59,-142.12 -144.02,-95.37 -267.82,-244.45 -370.14,-447.83l436.47 -262.77c131.38,240.03 282.34,360.04 452.89,360.04 89.06,0 164.22,-25.9 224.86,-77.69 60.64,-51.8 90.96,-111.8 90.96,-179.39 0,-61.28 -22.75,-123.17 -68.85,-185.08 -45.47,-61.27 -146.55,-156.01 -302.56,-282.98 -296.87,-241.29 -488.26,-427.63 -574.8,-559.01 -86.54,-131.38 -130.12,-262.14 -130.12,-392.88 0,-188.86 72.01,-350.57 215.39,-485.11 144.02,-135.17 321.51,-202.76 532.48,-202.76 135.81,0 265.29,31.59 387.83,94.12 123.17,63.16 255.82,177.49 399.2,344.25zm1970.74 0l-384.04 338.56c-134.54,-186.96 -271.6,-280.45 -411.2,-280.45 -68.21,0 -123.8,18.32 -166.75,54.32 -43.58,36.64 -65.05,77.7 -65.05,123.17 0,45.48 15.15,89.07 46.1,129.49 42.33,54.32 169.28,170.54 380.89,349.3 197.71,165.49 317.72,269.72 360.04,312.66 104.86,106.12 179.39,207.19 223.61,303.83 43.58,97.28 65.69,202.76 65.69,317.09 0,223.61 -77.06,407.42 -231.82,553.33 -154.12,145.27 -355.62,217.92 -604.48,217.92 -193.92,0 -362.57,-47.38 -506.59,-142.12 -144.02,-95.37 -267.82,-244.45 -370.14,-447.83l436.47 -262.77c131.38,240.03 282.34,360.04 452.89,360.04 89.06,0 164.22,-25.9 224.86,-77.69 60.64,-51.8 90.96,-111.8 90.96,-179.39 0,-61.28 -22.75,-123.17 -68.85,-185.08 -45.48,-61.27 -146.55,-156.01 -302.56,-282.98 -296.87,-241.29 -488.26,-427.63 -574.8,-559.01 -86.54,-131.38 -130.13,-262.14 -130.13,-392.88 0,-188.86 72.02,-350.57 215.4,-485.11 144.02,-135.17 321.51,-202.76 532.48,-202.76 135.8,0 265.29,31.59 387.83,94.12 123.17,63.16 255.81,177.49 399.2,344.25zm1824.84 -438.37c384.67,0 715.66,139.6 992.32,418.16 277.29,278.55 415.62,618.38 415.62,1018.85 0,397.31 -136.43,733.34 -409.94,1008.1 -272.87,274.77 -604.49,412.47 -994.22,412.47 -408.67,0 -747.87,-141.5 -1017.58,-423.84 -270.35,-282.34 -405.53,-617.75 -405.53,-1006.21 0,-259.62 63.17,-499.01 188.86,-717.55 125.7,-217.92 298.77,-391 518.58,-518.58 220.45,-127.6 457.94,-191.39 711.87,-191.39zm-7.58 507.84c-250.77,0 -461.73,87.8 -632.28,262.77 -171.18,174.96 -256.45,397.3 -256.45,667.64 0,300.67 107.38,538.8 322.77,713.76 167.39,137.07 358.79,205.28 575.44,205.28 244.45,0 452.89,-89.06 624.7,-266.55 172.44,-177.49 258.34,-396.04 258.34,-656.28 0,-258.98 -86.53,-478.15 -260.23,-657.55 -173.07,-179.39 -384.04,-269.08 -632.28,-269.08z"/>
   <path class="fil3" d="M7195.24 5482.36c10.26,0 19.56,4.16 27.89,12.5l73.08 80.46c-56.41,65.39 -124.69,116.68 -205.14,153.22 -80.46,36.54 -177.58,54.81 -291.06,54.81 -99.37,0 -189.44,-17.31 -270.22,-51.6 -80.78,-34.31 -149.7,-82.39 -206.75,-144.25 -57.06,-61.88 -101.29,-136.23 -132.71,-222.78 -31.42,-86.56 -47.13,-181.76 -47.13,-285.93 0,-103.86 16.99,-199.06 50.65,-285.61 33.66,-86.55 80.79,-160.91 141.68,-223.42 60.91,-62.18 133.99,-110.27 218.93,-144.56 84.95,-34.31 178.54,-51.61 281.12,-51.61 101.3,0 188.8,15.71 262.21,47.44 73.41,31.73 138.48,74.7 195.54,129.18l-60.59 84.3c-4.48,6.42 -9.62,11.55 -15.38,15.71 -5.77,3.85 -14.11,6.09 -25,6.09 -8.34,0 -16.99,-3.21 -26.28,-9.3 -9.3,-6.09 -20.52,-13.46 -33.34,-22.44 -12.82,-8.98 -27.89,-18.59 -45.2,-28.85 -17.31,-10.26 -37.82,-19.88 -61.55,-28.86 -23.72,-8.97 -51.28,-16.67 -82.7,-22.76 -31.42,-6.09 -67.63,-8.98 -108.66,-8.98 -73.72,0 -141.05,12.5 -202.26,37.83 -61.23,25.32 -114.12,61.54 -158.35,108.35 -44.23,46.79 -78.53,103.85 -103.21,171.17 -24.68,67.32 -37.18,142.64 -37.18,225.98 0,85.92 12.5,162.52 37.18,229.83 24.68,67.32 58.34,124.06 100.97,170.54 42.63,46.47 92.96,82.05 151.3,106.41 58.34,24.36 121.16,36.55 188.48,36.55 41.03,0 77.89,-2.56 110.59,-7.37 32.69,-4.81 63.14,-12.18 91.03,-22.44 27.89,-10.26 53.85,-23.39 77.9,-39.11 24.04,-15.7 48.08,-34.3 72.44,-56.1 10.9,-9.62 21.48,-14.43 31.73,-14.43zm2312.84 -402.93c0,103.21 -16.34,198.1 -49.04,284.65 -32.69,86.23 -78.85,160.6 -138.48,222.78 -59.62,62.18 -131.1,110.59 -214.76,144.89 -83.67,34.3 -176.31,51.6 -277.6,51.6 -101.29,0 -193.61,-17.31 -276.95,-51.6 -83.34,-34.31 -154.83,-82.71 -214.44,-144.89 -59.62,-62.18 -105.79,-136.55 -138.48,-222.78 -32.7,-86.55 -49.05,-181.43 -49.05,-284.65 0,-103.21 16.35,-198.1 49.05,-284.65 32.69,-86.23 78.85,-160.6 138.48,-223.42 59.61,-62.51 131.1,-111.24 214.44,-145.85 83.35,-34.62 175.66,-51.93 276.95,-51.93 101.29,0 193.93,17.31 277.6,51.93 83.66,34.61 155.14,83.34 214.76,145.85 59.62,62.82 105.79,137.19 138.48,223.42 32.7,86.55 49.04,181.43 49.04,284.65zm-191.36 0c0,-84.62 -11.54,-160.91 -34.61,-228.23 -23.09,-67.63 -55.78,-124.37 -98.09,-171.17 -42.31,-46.48 -93.6,-82.38 -153.86,-107.38 -60.26,-25.01 -127.58,-37.51 -201.95,-37.51 -73.72,0 -140.72,12.5 -200.98,37.51 -60.26,25 -111.55,60.9 -154.19,107.38 -42.63,46.8 -75.64,103.53 -98.72,171.17 -23.09,67.32 -34.62,143.61 -34.62,228.23 0,84.62 11.54,160.6 34.62,227.91 23.08,67 56.1,123.73 98.72,170.53 42.63,46.48 93.93,82.06 154.19,106.74 60.26,24.68 127.26,37.18 200.98,37.18 74.37,0 141.68,-12.5 201.95,-37.18 60.26,-24.68 111.55,-60.26 153.86,-106.74 42.32,-46.8 75.01,-103.53 98.09,-170.53 23.08,-67.32 34.61,-143.29 34.61,-227.91zm1229.07 -690.46c16.67,0 29.17,1.92 37.18,6.1 8.01,4.16 16.99,12.81 27.24,25.64l798.17 1038.57c-1.92,-16.67 -3.21,-33.02 -3.85,-48.72 -0.65,-15.71 -0.97,-30.77 -0.97,-45.51l0 -976.07 163.48 0 0 1379 -94.24 0c-14.75,0 -26.93,-2.57 -36.86,-7.69 -9.94,-5.13 -19.88,-13.79 -29.49,-25.97l-797.2 -1037.61c1.28,16.02 2.24,31.73 2.88,47.12 0.65,15.38 0.97,29.49 0.97,42.31l0 981.84 -163.48 0 0 -1379 96.16 0zm2750.38 216.37c-5.77,9.62 -11.86,16.67 -18.27,21.47 -6.41,4.81 -14.75,7.37 -25,7.37 -10.9,0 -23.39,-5.45 -37.82,-16.34 -14.43,-10.9 -32.69,-23.09 -54.81,-36.23 -22.12,-13.14 -48.72,-25 -79.82,-35.9 -31.1,-10.9 -68.92,-16.35 -113.15,-16.35 -41.68,0 -78.53,5.45 -110.59,16.67 -32.06,11.22 -58.67,26.61 -80.14,45.84 -21.48,19.23 -37.83,41.67 -48.72,67.63 -10.9,25.97 -16.35,54.17 -16.35,84.3 0,38.46 9.62,70.19 28.53,95.52 18.91,25.32 43.92,47.12 75.01,65.06 31.1,17.95 66.36,33.35 105.79,46.48 39.43,13.15 79.81,26.93 121.17,41.03 41.35,14.11 81.73,29.81 121.16,47.45 39.43,17.63 74.69,40.06 105.79,67 31.09,26.92 56.1,59.94 75.01,99.04 18.91,39.11 28.21,87.19 28.21,144.25 0,60.27 -10.26,116.69 -30.78,169.57 -20.52,52.89 -50.32,99.05 -89.75,138.16 -39.43,39.11 -87.83,69.88 -145.2,92.31 -57.38,22.44 -122.77,33.66 -195.86,33.66 -89.11,0 -170.21,-16.35 -243.61,-48.72 -73.4,-32.37 -136.23,-76.29 -188.16,-131.74l53.85 -88.48c5.12,-7.36 11.54,-13.14 18.91,-17.94 7.37,-4.81 15.38,-7.37 24.36,-7.37 13.46,0 28.85,7.37 46.15,21.79 17.31,14.43 39.11,30.14 65.07,47.45 25.97,17.31 57.38,33.34 94.24,47.76 36.87,14.43 81.74,21.48 134.95,21.48 44.24,0 83.67,-6.09 118.29,-18.27 34.61,-12.18 64.11,-29.49 88.14,-51.6 24.04,-22.12 42.32,-48.4 55.14,-79.18 12.82,-30.77 19.23,-65.06 19.23,-102.9 0,-41.67 -9.3,-75.96 -28.21,-102.57 -18.91,-26.61 -43.91,-48.72 -74.69,-66.68 -30.77,-17.95 -65.71,-33.34 -105.14,-45.84 -39.43,-12.49 -79.81,-25.32 -121.16,-38.46 -41.36,-13.14 -81.74,-28.21 -121.17,-45.51 -39.43,-17.32 -74.69,-39.75 -105.46,-67.32 -30.78,-27.57 -55.46,-62.18 -74.37,-103.54 -18.91,-41.35 -28.54,-92.31 -28.54,-153.22 0,-48.72 9.63,-95.84 28.54,-141.36 18.91,-45.51 46.15,-85.91 82.05,-121.17 35.91,-35.25 80.46,-63.47 133.36,-84.62 52.89,-21.15 113.47,-31.73 182.07,-31.73 76.93,0 147.14,12.19 210.6,36.87 63.46,24.36 118.92,59.94 166.36,106.42l-45.2 88.47zm1938.76 -218.29l0 157.7 -445.24 0 0 1222.25 -186.55 0 0 -1222.25 -447.16 0 0 -157.7 1078.96 0zm1087.71 805.85l0 576.03 -185.6 0 0 -1379.96 389.46 0c87.19,0 162.52,8.98 225.99,26.61 63.47,17.63 116.04,42.95 157.39,76.28 41.35,33.34 71.8,73.73 91.68,120.85 19.88,47.44 29.81,100.01 29.81,158.35 0,49.04 -7.69,94.56 -23.09,136.87 -15.38,42.31 -37.49,80.46 -66.67,114.12 -29.17,33.66 -64.75,62.5 -106.74,86.23 -42,23.71 -89.75,41.67 -142.97,53.84 23.09,13.46 43.6,33.02 61.56,58.66l401.96 548.15 -165.4 0c-33.98,0 -58.99,-13.15 -75.01,-39.44l-357.73 -493.32c-10.9,-15.39 -22.77,-26.28 -35.58,-33.02 -12.82,-6.73 -32.05,-10.25 -57.7,-10.25l-141.37 0zm0 -136.55l195.21 0c54.5,0 102.58,-6.42 143.94,-19.55 41.34,-13.15 75.96,-31.73 103.85,-55.78 27.89,-24.04 48.72,-52.58 62.83,-85.91 14.1,-33.34 21.15,-70.2 21.15,-110.27 0,-82.06 -26.93,-143.93 -81.11,-185.28 -54.16,-41.67 -134.95,-62.51 -242.01,-62.51l-203.87 0 0 519.29zm2215.71 563.52c57.05,0 108.03,-9.62 152.9,-28.86 44.88,-19.23 83.02,-46.15 114.12,-80.78 31.09,-34.61 54.81,-75.96 71.16,-124.05 16.34,-48.09 24.36,-100.97 24.36,-158.67l0 -837.58 185.6 0 0 838.22c0,79.5 -12.5,153.22 -37.82,221.19 -25.33,67.95 -61.55,126.93 -108.66,176.62 -47.13,49.68 -104.82,88.79 -172.78,116.99 -67.95,28.22 -144.25,42.32 -228.87,42.32 -84.62,0 -160.91,-14.1 -228.87,-42.32 -67.95,-28.21 -125.65,-67.32 -173.1,-116.99 -47.44,-49.69 -83.66,-108.66 -108.98,-176.62 -25.32,-67.96 -38.14,-141.68 -38.14,-221.19l0 -838.22 185.6 0 0 836.63c0,57.69 8.33,110.59 24.68,158.66 16.35,48.09 40.07,89.43 71.16,124.06 31.1,34.61 69.24,61.55 114.43,81.1 45.2,19.55 96.17,29.49 153.22,29.49zm2493.62 -1232.82l0 157.7 -445.23 0 0 1222.25 -186.56 0 0 -1222.25 -447.16 0 0 -157.7 1078.96 0zm2068.58 692.37c0,103.21 -16.34,198.1 -49.04,284.65 -32.69,86.23 -78.85,160.6 -138.48,222.78 -59.62,62.18 -131.1,110.59 -214.76,144.89 -83.67,34.3 -176.31,51.6 -277.6,51.6 -101.29,0 -193.61,-17.31 -276.95,-51.6 -83.34,-34.31 -154.82,-82.71 -214.44,-144.89 -59.62,-62.18 -105.78,-136.55 -138.48,-222.78 -32.69,-86.55 -49.04,-181.43 -49.04,-284.65 0,-103.21 16.35,-198.1 49.04,-284.65 32.7,-86.23 78.85,-160.6 138.48,-223.42 59.62,-62.51 131.1,-111.24 214.44,-145.85 83.35,-34.62 175.66,-51.93 276.95,-51.93 101.29,0 193.93,17.31 277.6,51.93 83.66,34.61 155.14,83.34 214.76,145.85 59.62,62.82 105.79,137.19 138.48,223.42 32.7,86.55 49.04,181.43 49.04,284.65zm-191.36 0c0,-84.62 -11.54,-160.91 -34.61,-228.23 -23.09,-67.63 -55.78,-124.37 -98.09,-171.17 -42.31,-46.48 -93.6,-82.38 -153.86,-107.38 -60.26,-25.01 -127.58,-37.51 -201.95,-37.51 -73.72,0 -140.72,12.5 -200.98,37.51 -60.26,25 -111.55,60.9 -154.19,107.38 -42.63,46.8 -75.64,103.53 -98.72,171.17 -23.08,67.32 -34.61,143.61 -34.61,228.23 0,84.62 11.54,160.6 34.61,227.91 23.08,67 56.1,123.73 98.72,170.53 42.63,46.48 93.93,82.06 154.19,106.74 60.26,24.68 127.26,37.18 200.98,37.18 74.37,0 141.68,-12.5 201.95,-37.18 60.26,-24.68 111.55,-60.26 153.86,-106.74 42.32,-46.8 75.01,-103.53 98.09,-170.53 23.08,-67.32 34.61,-143.29 34.61,-227.91zm1337.74 113.48l0 576.03 -185.6 0 0 -1379.96 389.46 0c87.19,0 162.52,8.98 225.99,26.61 63.47,17.63 116.04,42.95 157.39,76.28 41.35,33.34 71.8,73.73 91.68,120.85 19.88,47.44 29.81,100.01 29.81,158.35 0,49.04 -7.69,94.56 -23.09,136.87 -15.38,42.31 -37.49,80.46 -66.67,114.12 -29.17,33.66 -64.75,62.5 -106.74,86.23 -42,23.71 -89.75,41.67 -142.97,53.84 23.09,13.46 43.6,33.02 61.55,58.66l401.97 548.15 -165.4 0c-33.98,0 -58.99,-13.15 -75.01,-39.44l-357.73 -493.32c-10.9,-15.39 -22.77,-26.28 -35.58,-33.02 -12.82,-6.73 -32.06,-10.25 -57.7,-10.25l-141.37 0zm0 -136.55l195.21 0c54.5,0 102.58,-6.42 143.94,-19.55 41.34,-13.15 75.96,-31.73 103.85,-55.78 27.89,-24.04 48.72,-52.58 62.83,-85.91 14.1,-33.34 21.15,-70.2 21.15,-110.27 0,-82.06 -26.93,-143.93 -81.11,-185.28 -54.17,-41.67 -134.95,-62.51 -242.01,-62.51l-203.87 0 0 519.29zm2854.24 711.61l-144.25 0c-16.67,0 -30.13,-4.16 -40.39,-12.5 -10.25,-8.33 -17.94,-18.91 -23.08,-31.73l-128.86 -332.72 -618.33 0 -128.86 332.72c-4.48,11.55 -12.18,21.8 -23.08,30.78 -10.9,8.98 -24.36,13.46 -40.39,13.46l-144.25 0 551.02 -1379 189.45 0 551.02 1379zm-902.98 -510.63l514.47 0 -216.36 -561.27c-14.11,-34.62 -27.89,-77.9 -41.35,-129.83 -7.05,26.28 -13.78,50.33 -20.52,72.45 -6.74,22.11 -13.46,41.67 -19.88,58.34l-216.36 560.31z"/>
  </g>
 </g>
</svg>
