<svg xmlns="http://www.w3.org/2000/svg" viewBox="0 0 277.1 321.1"><style type="text/css">  
	.st0{fill:#FFFFFF;}
</style><rect width="277.1" height="277.1"/><path class="st0" d="M105.9 264.4H95.4c-0.3-0.6-0.7-1.7-1-3.4 -2.6 2.9-6.8 4.3-12.5 4.3 -3.9 0-7.2-0.9-9.8-2.7 -3-2.1-4.5-5.2-4.5-9.3 0-5.8 2.3-9.8 6.8-12 2.1-1 6.4-1.9 12.8-2.7 4.6-0.6 6.8-1.8 6.8-3.7 0-1.7-0.7-3-2-4 -1.4-1-3-1.5-4.8-1.5 -1.9 0-3.5 0.5-4.8 1.5 -1.5 1.1-2.4 2.7-2.6 4.7H69c0.3-3.5 1.1-6.3 2.4-8.4 1.4-2.1 3.6-3.8 6.6-5 2.8-1.1 6-1.6 9.6-1.6 12.1 0.1 18.1 5.9 18.1 17.3v26.5H105.9zM94 243.6c-1.1 0.9-3.1 1.6-5.9 2.2 -3.2 0.6-5.3 1.1-6.2 1.7 -2 1-3 2.8-3 5.3 0 3.2 1.7 4.8 5 4.8 1.5 0 3.1-0.4 4.8-1.1s2.9-1.6 3.8-2.6c1.1-1.4 1.7-3.4 1.7-6.2 0-0.5 0-1.2-0.1-2.1C94 244.7 94 244 94 243.6z"/><path class="st0" d="M66.6 218.9H55.7v-10.1h10.9V218.9L66.6 218.9zM66.6 264.5H55.7v-41.3h10.9V264.5z"/><polygon class="st0" points="54.5 208.8 35.6 264.5 24.6 264.5 5.9 208.8 18.3 208.8 30.4 247.9 42.4 208.8 "/><path class="st0" d="M134 218.5h-14.8v14.9h14.5c2.7 0 4.8-0.8 6.3-2.3 1.4-1.4 2.1-3.1 2.1-5.1s-0.7-3.7-2-5.1C138.5 219.2 136.5 218.5 134 218.5L134 218.5zM151.7 264.5h-11.4v-14.3c0-2.8-0.7-4.8-2.2-5.9 -1.3-1-3.5-1.5-6.5-1.5h-12.4v21.7h-11.4v-55.7h28.3c5.5 0 9.9 1.7 13.2 5.1 2.9 3 4.3 6.7 4.3 11 0 2.9-0.7 5.5-2.2 7.8 -1.5 2.4-3.7 4.1-6.5 5.1 2.7 0.9 4.5 2.3 5.6 4.2 0.8 1.5 1.2 3.8 1.2 6.7L151.7 264.5 151.7 264.5z"/><path class="st0" d="M183.7 242.6c0-8.4-3.3-12.6-10-12.6s-10 4.2-10 12.6 3.3 12.6 10 12.6C180.4 255.3 183.7 251.1 183.7 242.6L183.7 242.6zM194.8 242.6c0 6.6-1.9 11.9-5.7 15.8 -3.8 4-8.9 6-15.4 6 -6.6 0-11.8-2-15.6-6 -3.8-4-5.7-9.3-5.7-15.8s1.9-11.8 5.7-15.9c3.8-4 9-6 15.7-6 6.6 0 11.9 2 15.7 6.2C193 230.9 194.8 236.2 194.8 242.6z"/><path class="st0" d="M232.5 250.1c0 2.9-0.7 5.5-2.2 7.6 -3.1 4.5-8.4 6.7-16.1 6.7 -5.2 0-9.6-1.2-13.4-3.5 -4.1-2.7-6.2-6.3-6.3-10.8h11.2c0 2 0.9 3.6 2.6 4.7 1.5 1 3.4 1.5 5.7 1.5 2 0 3.7-0.4 5.2-1.2 1.5-0.8 2.2-1.8 2.2-3.1 0-1.7-2.2-3-6.6-4 -6.5-1.5-10.6-2.6-12.3-3.5 -4.4-2.1-6.6-5.4-6.6-9.7 0-2.6 0.6-4.9 1.9-7 1.2-2.1 3.3-3.8 6.3-5.1 2.9-1.3 6.1-1.9 9.5-1.9 4.6 0 8.5 1.1 11.7 3.3 3.6 2.5 5.5 6 5.8 10.5h-10.7c-0.6-3.7-3-5.5-7.3-5.5 -1.8 0-3.3 0.4-4.6 1.2 -1.3 0.8-1.9 1.8-1.9 2.9 0 1.5 2.2 2.8 6.6 3.8 6.4 1.4 10.6 2.6 12.4 3.5C230.3 242.6 232.5 245.8 232.5 250.1z"/><path class="st0" d="M259.4 243.6c-1.1 0.9-3.1 1.6-5.9 2.2 -3.2 0.6-5.3 1.1-6.2 1.7 -2 1-3 2.8-3 5.3 0 3.2 1.7 4.8 5 4.8 1.5 0 3.1-0.4 4.8-1.1 1.7-0.7 2.9-1.6 3.8-2.6 1.1-1.4 1.7-3.4 1.7-6.2 0-0.5 0-1.2-0.1-2.1C259.4 244.7 259.4 244.1 259.4 243.6L259.4 243.6zM271.3 264.4h-10.5c-0.3-0.6-0.7-1.7-1-3.4 -2.6 2.9-6.8 4.3-12.5 4.3 -3.9 0-7.2-0.9-9.8-2.7 -3-2.1-4.5-5.2-4.5-9.3 0-5.8 2.3-9.8 6.8-12 2.1-1 6.4-1.9 12.8-2.7 4.6-0.6 6.8-1.8 6.8-3.7 0-1.7-0.7-3-2.1-4s-3-1.5-4.8-1.5c-1.9 0-3.5 0.5-4.8 1.5 -1.5 1.1-2.4 2.7-2.6 4.7h-10.8c0.3-3.5 1.1-6.3 2.4-8.4 1.4-2.1 3.6-3.8 6.6-5 2.8-1.1 6-1.6 9.6-1.6 12.1 0.1 18.1 5.9 18.1 17.4v26.4H271.3z"/><path d="M9.6 299.3H0.8v21.3h2.3v-8.9h6.2c1 0 1.9-0.1 2.8-0.4s1.6-0.7 2.3-1.2c0.6-0.5 1.2-1.2 1.5-2 0.4-0.8 0.5-1.7 0.5-2.7 0-2-0.6-3.6-1.9-4.7C13.4 299.8 11.7 299.3 9.6 299.3zM9.6 309.4H3.1v-7.8h6.5c1.6 0 2.8 0.3 3.5 1s1 1.6 1 2.9c0 0.6-0.1 1.2-0.3 1.7 -0.2 0.5-0.5 0.9-0.9 1.2 -0.4 0.3-0.9 0.6-1.4 0.8C10.9 309.3 10.3 309.4 9.6 309.4z"/><path d="M42.8 302.2c-0.8-1-1.9-1.9-3.1-2.5 -1.2-0.6-2.7-0.9-4.3-0.9s-3 0.3-4.3 0.9c-1.2 0.6-2.3 1.4-3.1 2.5 -0.8 1-1.5 2.2-1.9 3.5l0 0c-0.4 1.3-0.6 2.7-0.6 4.2s0.2 2.9 0.6 4.2c0.4 1.3 1.1 2.5 1.9 3.5 0.8 1 1.9 1.9 3.1 2.4 1.2 0.6 2.7 0.9 4.3 0.9s3-0.3 4.3-0.9c1.2-0.6 2.3-1.4 3.1-2.4s1.5-2.2 1.9-3.5 0.6-2.7 0.6-4.2 -0.2-2.9-0.6-4.2C44.2 304.4 43.6 303.2 42.8 302.2zM32.2 318.1c-0.9-0.4-1.7-1-2.3-1.8s-1.2-1.7-1.5-2.8c-0.4-1.1-0.6-2.3-0.6-3.6 0-1.3 0.2-2.5 0.6-3.6 0.4-1.1 0.9-2 1.5-2.8s1.4-1.4 2.3-1.8c0.9-0.4 2-0.6 3.2-0.6s2.2 0.2 3.2 0.6c0.9 0.4 1.7 1 2.3 1.8s1.2 1.7 1.5 2.8c0.4 1.1 0.6 2.3 0.6 3.6 0 1.3-0.2 2.5-0.6 3.6 -0.4 1.1-0.9 2-1.5 2.8s-1.4 1.4-2.3 1.8C36.7 319 34.1 319 32.2 318.1z"/><path d="M71 318.9c-0.1-0.3-0.1-0.7-0.1-1 0-0.4-0.1-0.8-0.1-1.2 0-0.4 0-0.7 0-1 0-0.8 0-1.6-0.1-2.2 -0.1-0.7-0.3-1.4-0.7-1.9 -0.3-0.5-0.8-1-1.4-1.4 0.5-0.3 0.9-0.7 1.3-1.1 0.9-1 1.3-2.3 1.2-3.9 0-2-0.6-3.5-1.8-4.4 -1.1-1-2.8-1.4-5.1-1.4h-8.9v21.3h2.3v-9.2h6.5c1 0 1.8 0.1 2.4 0.3 0.5 0.2 0.9 0.4 1.2 0.7 0.3 0.3 0.4 0.7 0.5 1.2 0.1 0.6 0.2 1.2 0.2 2 0 0.3 0 0.7 0 1.1s0 0.8 0.1 1.2c0 0.4 0.1 0.8 0.1 1.2 0.1 0.4 0.2 0.8 0.3 1l0.2 0.5H72l-1-1.4C71.1 319.2 71.1 319.1 71 318.9zM67.4 308.2c-0.4 0.3-0.9 0.6-1.5 0.7 -0.6 0.2-1.2 0.2-1.9 0.2h-6.4v-7.5h6.7c1.6 0 2.8 0.3 3.4 0.9 0.6 0.6 1 1.5 1 2.6 0 0.7-0.1 1.3-0.4 1.8C68.2 307.4 67.9 307.8 67.4 308.2z"/><path d="M97.8 311.9c-0.1 1-0.4 1.9-0.8 2.8 -0.4 0.8-0.9 1.6-1.5 2.1 -0.6 0.6-1.3 1.1-2.1 1.4 -1.7 0.7-4.2 0.7-5.9-0.2 -0.9-0.5-1.7-1.1-2.3-1.9s-1.1-1.7-1.5-2.7c-0.3-1.1-0.5-2.2-0.5-3.3 0-0.9 0.1-2 0.4-3 0.3-1 0.7-2 1.3-2.9s1.4-1.6 2.4-2.2 2.2-0.8 3.6-0.8c0.9 0 1.8 0.1 2.6 0.4s1.4 0.7 2 1.2 1 1 1.3 1.6 0.5 1.2 0.5 1.7l0.1 0.8h2.3V306c0-0.7-0.2-1.5-0.6-2.3 -0.4-0.8-0.9-1.6-1.6-2.3 -0.7-0.7-1.6-1.3-2.7-1.8 -1.1-0.5-2.3-0.7-3.8-0.7 -1.8 0-3.4 0.4-4.7 1.1s-2.3 1.6-3.1 2.7 -1.4 2.3-1.7 3.6c-0.4 1.3-0.5 2.6-0.5 3.9 0 1.6 0.2 3 0.7 4.3s1.1 2.5 2 3.5 1.9 1.7 3.1 2.3c1.2 0.6 2.5 0.8 3.9 0.8s2.6-0.2 3.7-0.7c1.1-0.4 2-1.1 2.8-1.9s1.4-1.7 1.9-2.8c0.5-1.1 0.8-2.2 1-3.5l0.1-1h-2.3L97.8 311.9z"/><polygon points="112.3 310.7 124 310.7 124 308.4 112.3 308.4 112.3 301.6 124.8 301.6 124.8 299.3 110 299.3 110 320.6 124.9 320.6 124.9 318.3 112.3 318.3 "/><polygon points="136.6 299.3 134.3 299.3 134.3 320.6 148 320.6 148 318.3 136.6 318.3 "/><path d="M163.4 299.3l-8.6 21.3h2.5l2.6-6.4h8.8l2.6 6.4h2.5l-8.4-21.3H163.4zM160.9 311.8l3.5-8.8 3.4 8.8H160.9z"/><polygon points="196.6 316.3 184.5 299.3 182.3 299.3 182.3 320.6 184.7 320.6 184.7 303.6 196.7 320.6 198.9 320.6 198.9 299.3 196.6 299.3 "/><path d="M216.1 299.3l-8.6 21.3h2.5l2.6-6.4h8.8l2.6 6.4h2.5l-8.4-21.3H216.1zM213.5 311.8l3.5-8.8 3.4 8.8H213.5z"/><polygon points="231 301.6 238 301.6 238 320.6 240.3 320.6 240.3 301.6 247.4 301.6 247.4 299.3 231 299.3 "/><path d="M274.7 305.7c-0.4-1.3-1.1-2.5-1.9-3.5s-1.9-1.8-3.1-2.5c-2.5-1.2-6-1.2-8.5 0 -1.2 0.6-2.3 1.4-3.1 2.5 -0.8 1-1.5 2.2-1.9 3.5s-0.6 2.7-0.6 4.2 0.2 2.9 0.6 4.2c0.4 1.3 1.1 2.5 1.9 3.5s1.9 1.9 3.1 2.4c1.2 0.6 2.7 0.9 4.3 0.9 1.6 0 3-0.3 4.3-0.9 1.2-0.6 2.3-1.4 3.1-2.4 0.8-1 1.5-2.2 1.9-3.5s0.6-2.7 0.6-4.2S275.1 307 274.7 305.7zM262.3 318.1c-0.9-0.4-1.7-1-2.3-1.8 -0.6-0.8-1.2-1.7-1.5-2.8 -0.4-1.1-0.6-2.3-0.6-3.6 0-1.3 0.2-2.5 0.6-3.6s0.9-2 1.5-2.8c0.6-0.7 1.4-1.3 2.3-1.8 0.9-0.4 2-0.6 3.2-0.6s2.2 0.2 3.2 0.6c0.9 0.4 1.7 1 2.3 1.8 0.7 0.8 1.1 1.7 1.5 2.8 0.4 1.1 0.6 2.3 0.6 3.6 0 1.3-0.2 2.5-0.6 3.6s-0.9 2-1.5 2.8 -1.4 1.4-2.3 1.8C266.8 319 264.1 319 262.3 318.1z"/></svg>